<?xml version="1.0" encoding="UTF-8" standalone="no"?>
<svg
        id="svg8"
        version="1.1"
        viewBox="0 0 17.681608 17.681609"
        height="66.828125"
        width="66.828125"
        xmlns="http://www.w3.org/2000/svg"
        xmlns:svg="http://www.w3.org/2000/svg"
        xmlns:rdf="http://www.w3.org/1999/02/22-rdf-syntax-ns#"
        xmlns:cc="http://creativecommons.org/ns#"
        xmlns:dc="http://purl.org/dc/elements/1.1/">
  <defs
          id="defs2" />
  <metadata
          id="metadata5">
    <rdf:RDF>
      <cc:Work
              rdf:about="">
        <dc:format>image/svg+xml</dc:format>
        <dc:type
                rdf:resource="http://purl.org/dc/dcmitype/StillImage" />
      </cc:Work>
    </rdf:RDF>
  </metadata>
  <g
          id="layer1"
          transform="translate(0.37413738,0.37413738)">
    <g
            id="g1332">
      <path
              id="rect844"
              style="fill:#1c1c1c;fill-opacity:0.968468;stroke-width:1.5875;stroke-linecap:round;stroke-linejoin:bevel"
              d="m -0.37413738,2.6194784 c 0,0.2494249 0,0.4988498 0,0.7482749 C 1.3255005,5.0673911 3.0251385,6.767029 4.7247764,8.4666669 3.0251385,10.166305 1.3255005,11.865943 -0.37413738,13.56558 c 0,0.249426 0,0.49885 0,0.748275 0.99787194,0.997872 1.99574388,1.995744 2.99361578,2.993616 0.2494249,0 0.4988498,0 0.7482749,0 1.6996378,-1.699638 3.3992757,-3.399276 5.0989136,-5.098914 1.6996381,1.699638 3.3992761,3.399276 5.0989131,5.098914 0.249426,0 0.49885,0 0.748275,0 0.997872,-0.997872 1.995744,-1.995744 2.993616,-2.993616 0,-0.249425 0,-0.498849 0,-0.748275 -1.699638,-1.699637 -3.399276,-3.399275 -5.098914,-5.0989131 1.699638,-1.6996379 3.399276,-3.3992758 5.098914,-5.0989136 0,-0.2494251 0,-0.49885 0,-0.7482749 -0.997872,-0.9978719 -1.995744,-1.99574384 -2.993616,-2.99361578 -0.249425,0 -0.498849,0 -0.748275,0 C 11.865943,1.3255005 10.166305,3.0251385 8.4666669,4.7247764 6.767029,3.0251385 5.0673911,1.3255005 3.3677533,-0.37413738 c -0.2494251,0 -0.49885,0 -0.7482749,0 C 1.6216065,0.62373456 0.62373456,1.6216065 -0.37413738,2.6194784 Z" />
      <path
              id="path967"
              style="fill:#e5e5e5;fill-opacity:1;stroke-width:6;stroke-linecap:round;stroke-linejoin:bevel"
              d="M 11.314453,0 0,11.314453 20.685547,32 0,52.685547 11.314453,64 32,43.314453 52.685547,64 64,52.685547 43.314453,32 64,11.314453 52.685547,0 32,20.685547 Z"
              transform="scale(0.26458334)" />
    </g>
  </g>
</svg>
