<?xml version="1.0" encoding="UTF-8" standalone="no"?>
<svg
   id="svg8"
   version="1.1"
   viewBox="0 0 33.602083 33.602682"
   height="127.00226"
   width="127"
   xmlns="http://www.w3.org/2000/svg"
   xmlns:svg="http://www.w3.org/2000/svg"
   xmlns:rdf="http://www.w3.org/1999/02/22-rdf-syntax-ns#"
   xmlns:cc="http://creativecommons.org/ns#"
   xmlns:dc="http://purl.org/dc/elements/1.1/">
  <defs
     id="defs2" />
  <metadata
     id="metadata5">
    <rdf:RDF>
      <cc:Work
         rdf:about="">
        <dc:format>image/svg+xml</dc:format>
        <dc:type
           rdf:resource="http://purl.org/dc/dcmitype/StillImage" />
      </cc:Work>
    </rdf:RDF>
  </metadata>
  <g
     id="layer1"
     transform="translate(-0.13229117,-0.13199346)">
    <g
       id="g24777"
       style="stroke-width:0.394823"
       transform="matrix(2.5327789,0,0,2.5327789,62.334717,-13.276593)">
      <path
         id="path10536"
         style="fill:#666666;fill-opacity:1;stroke:none;stroke-width:0.208928;stroke-linecap:round;stroke-linejoin:round"
         d="m -17.925862,5.2940217 a 6.6334719,6.6334767 0 0 0 -0.838309,0.057738 l -0.572008,1.0393945 a 5.5745442,5.7270406 0 0 0 -1.468059,0.6358659 l -1.180699,-0.3423886 a 6.6334719,6.6334767 0 0 0 -1.184095,1.1847744 l 0.3716,1.2812405 a 5.5745442,5.7270406 0 0 0 -0.504072,1.2785246 l -1.20108,0.660322 a 6.6334719,6.6334767 0 0 0 -0.05638,0.838309 6.6334719,6.6334767 0 0 0 0.05707,0.837629 l 1.2004,0.66168 a 5.5745442,5.7270406 0 0 0 0.504072,1.278523 l -0.370921,1.280563 a 6.6334719,6.6334767 0 0 0 1.184095,1.184094 l 1.17934,-0.341709 a 5.5745442,5.7270406 0 0 0 1.469419,0.635865 l 0.572007,1.039394 a 6.6334719,6.6334767 0 0 0 0.83763,0.05707 6.6334719,6.6334767 0 0 0 0.838989,-0.05774 l 0.572006,-1.038715 a 5.5745442,5.7270406 0 0 0 1.468741,-0.635866 l 1.17866,0.341711 a 6.6334719,6.6334767 0 0 0 1.184775,-1.184089 l -0.371611,-1.279891 a 5.5745442,5.7270406 0 0 0 0.504752,-1.279203 l 1.2004,-0.661681 a 6.6334719,6.6334767 0 0 0 0.05706,-0.837629 6.6334719,6.6334767 0 0 0 -0.05299,-0.835592 l -1.200399,-0.661001 a 5.5745442,5.7270406 0 0 0 -0.50679,-1.2846377 l 0.370921,-1.2805621 A 6.6334719,6.6334767 0 0 0 -13.864069,6.683958 L -15.04273,7.025667 A 5.5745442,5.7270406 0 0 0 -16.517584,6.3870851 L -17.08959,5.3476893 a 6.6334719,6.6334767 0 0 0 -0.836272,-0.053662 z m 0,3.508128 a 3.1254,3.1254024 0 0 1 3.125658,3.1256583 3.1254,3.1254024 0 0 1 -3.125658,3.124978 3.1254,3.1254024 0 0 1 -3.124978,-3.124978 3.1254,3.1254024 0 0 1 3.124978,-3.1256583 z" />
      <path
         id="path15684"
         style="fill:#404040;fill-opacity:1;stroke:none;stroke-width:0.789646;stroke-linecap:round;stroke-linejoin:round"
         d="m -47.720703,38.429688 c -3.06518,0.551612 -6.085931,1.368372 -9.019531,2.373046 a 11.812535,11.812544 0 0 1 0.802734,4.279297 11.812535,11.812544 0 0 1 -11.814453,11.810547 11.812535,11.812544 0 0 1 -9.986328,-5.507812 c -3.787776,2.489673 -6.907519,4.850782 -9.13086,6.632812 l -0.695312,2.402344 a 25.07139,25.071408 0 0 0 4.474609,4.476562 l 4.457032,-1.292968 a 21.069143,21.645508 0 0 0 5.554687,2.404296 l 2.160156,3.927735 a 25.07139,25.071408 0 0 0 3.166016,0.216797 25.07139,25.071408 0 0 0 3.171875,-0.21875 l 2.162109,-3.925782 a 21.069143,21.645508 0 0 0 5.550781,-2.404296 l 4.455079,1.292968 a 25.07139,25.071408 0 0 0 4.478515,-4.476562 l -1.40625,-4.837891 a 21.069143,21.645508 0 0 0 1.908203,-4.833984 l 4.53711,-2.5 a 25.07139,25.071408 0 0 0 0.214843,-3.166016 25.07139,25.071408 0 0 0 -0.199218,-3.158203 l -4.53711,-2.498047 a 21.069143,21.645508 0 0 0 -0.304687,-0.996093 z"
         transform="scale(0.26458334)" />
      <path
         id="path14402"
         style="fill:#9a9a9a;fill-opacity:1;stroke:none;stroke-width:0.789646;stroke-linecap:round;stroke-linejoin:round"
         d="m -67.751953,20.009766 a 25.07139,25.071408 0 0 0 -3.167969,0.216796 l -2.162109,3.929688 a 21.069143,21.645508 0 0 0 -5.548828,2.402344 l -4.460938,-1.292969 a 25.07139,25.071408 0 0 0 -4.476562,4.476563 l 1.404297,4.84375 a 21.069143,21.645508 0 0 0 -1.904297,4.832031 l -4.539063,2.49414 a 25.07139,25.071408 0 0 0 -0.21289,3.169922 25.07139,25.071408 0 0 0 0.123046,2.25586 c 1.423214,-3.375897 8.79864,-17.430232 34.230469,-21.677735 a 21.069143,21.645508 0 0 0 -3.960937,-1.519531 l -2.16211,-3.929687 a 25.07139,25.071408 0 0 0 -3.162109,-0.201172 z"
         transform="scale(0.26458334)" />
      <path
         id="path12496"
         style="fill:#343434;fill-opacity:1;stroke:none;stroke-width:0.789646;stroke-linecap:round;stroke-linejoin:round"
         d="M -67.75,31.203125 A 13.87697,13.87697 0 0 0 -81.626953,45.080078 13.87697,13.87697 0 0 0 -67.75,58.957031 13.87697,13.87697 0 0 0 -53.873047,45.080078 13.87697,13.87697 0 0 0 -67.75,31.203125 Z m -0.002,2.064453 A 11.812535,11.812544 0 0 1 -55.9375,45.082031 11.812535,11.812544 0 0 1 -67.751953,56.892578 11.812535,11.812544 0 0 1 -79.5625,45.082031 11.812535,11.812544 0 0 1 -67.751953,33.267578 Z"
         transform="scale(0.26458334)" />
      <path
         id="path15338"
         style="fill:#1d1d1d;fill-opacity:1;stroke:none;stroke-width:0.789646;stroke-linecap:round;stroke-linejoin:round"
         d="m -54.806641,40.173828 c -0.648322,0.200808 -1.293197,0.409589 -1.933593,0.628906 a 11.812535,11.812544 0 0 1 0.802734,4.279297 11.812535,11.812544 0 0 1 -11.814453,11.810547 11.812535,11.812544 0 0 1 -9.957031,-5.527344 c -0.596789,0.392013 -1.178928,0.781794 -1.742188,1.166016 a 13.87697,13.87697 0 0 0 11.701172,6.425781 13.87697,13.87697 0 0 0 13.876953,-13.876953 13.87697,13.87697 0 0 0 -0.933594,-4.90625 z"
         transform="scale(0.26458334)" />
    </g>
  </g>
</svg>
